<?xml version="1.0" standalone="no"?>
<!DOCTYPE svg PUBLIC "-//W3C//DTD SVG 20010904//EN"
 "http://www.w3.org/TR/2001/REC-SVG-20010904/DTD/svg10.dtd">
<svg version="1.0" xmlns="http://www.w3.org/2000/svg"
 width="260.000000pt" height="260.000000pt" viewBox="0 0 260.000000 260.000000"
 preserveAspectRatio="xMidYMid meet">
<metadata>
Created by potrace 1.11, written by Peter Selinger 2001-2013
</metadata>
<g transform="translate(0.000000,260.000000) scale(0.100000,-0.100000)"
fill="#000000" stroke="none">
<path d="M2309 1848 c-16 -12 -43 -20 -70 -21 -46 -1 -184 11 -222 19 -12 3
-69 6 -127 9 -221 8 -397 -51 -521 -174 -109 -110 -159 -246 -153 -417 8 -245
177 -486 394 -563 19 -7 80 -21 135 -31 85 -16 155 -19 463 -20 351 0 362 0
362 19 0 11 -14 27 -34 39 -51 30 -56 63 -53 319 2 204 4 224 22 249 11 14 36
32 54 38 20 6 35 19 37 29 1 9 -1 18 -4 18 -4 1 -134 2 -289 3 -233 1 -284 -1
-288 -13 -6 -14 14 -45 23 -37 3 3 18 -2 34 -12 41 -24 51 -73 51 -247 1 -224
-4 -244 -69 -276 -36 -17 -56 -20 -102 -16 -81 8 -127 31 -189 92 -99 99 -154
260 -148 430 2 55 6 116 10 135 24 123 96 227 190 275 52 26 69 30 144 30 126
0 195 -29 286 -120 39 -38 79 -89 89 -112 13 -30 25 -43 39 -43 21 0 21 12 -3
180 -10 71 -13 92 -25 192 -3 23 -7 43 -8 44 -1 1 -14 -7 -28 -18z"/>
<path d="M455 1845 c-199 -43 -340 -183 -358 -355 -6 -49 15 -128 45 -176 52
-81 122 -119 368 -199 165 -53 219 -79 238 -115 18 -34 10 -120 -14 -153 -47
-66 -195 -103 -306 -77 -156 36 -296 176 -323 323 -4 20 -13 37 -20 37 -13 0
-37 -24 -31 -31 2 -2 7 -42 10 -89 8 -105 18 -227 21 -260 2 -14 3 -49 4 -78
l1 -53 30 21 c37 27 88 28 215 4 119 -22 312 -26 396 -9 282 59 442 227 425
445 -6 81 -24 125 -75 179 -59 62 -101 80 -429 181 -126 39 -172 75 -172 135
0 53 27 92 83 120 100 49 241 12 343 -90 29 -28 62 -71 74 -94 15 -30 26 -41
36 -37 9 3 18 6 20 6 3 0 3 3 1 8 -3 4 -8 39 -12 77 -3 39 -8 84 -10 100 -14
114 -19 151 -21 158 -1 4 -2 14 -3 22 -1 14 -5 13 -33 -2 -38 -20 -166 -21
-214 -2 -43 17 -219 20 -289 4z"/>
</g>
</svg>
